<?xml version="1.0" encoding="UTF-8"?>
<svg width="95px" height="95px" viewBox="0 0 95 95" version="1.1" xmlns="http://www.w3.org/2000/svg" xmlns:xlink="http://www.w3.org/1999/xlink">
    <!-- Generator: Sketch 58 (84663) - https://sketch.com -->
    <title>feature_duration</title>
    <desc>Created with Sketch.</desc>
    <g id="Page-1" stroke="none" stroke-width="1" fill="none" fill-rule="evenodd">
        <path d="M36.372235,7.27525947 L59.497235,7.2785178 C60.0278017,7.2785178 60.457485,7.7081678 60.457485,8.2387678 C60.457485,8.76933447 60.027835,9.1990178 59.497235,9.1990178 L59.497235,9.1990178 L48.894735,9.1990178 L48.894735,19.4981845 C57.7689017,19.7490095 65.7959017,23.4402678 71.6780684,29.2898511 C71.70411,29.3126345 71.7334017,29.3191428 71.7561934,29.3419345 C71.7789767,29.3647178 71.7887434,29.3972678 71.8082767,29.4200595 C77.8691934,35.5133928 81.6224434,43.9092261 81.6224434,53.1633928 C81.6224434,62.4175595 77.86611,70.8129761 71.8049434,76.9067261 L71.8049434,76.9067261 C71.7857184,76.9329178 71.7824684,76.9589595 71.7564267,76.9850011 C71.733635,77.0077928 71.7043434,77.0143011 71.6815517,77.0338345 C65.5882184,83.0980828 57.192385,86.8513328 47.934885,86.8513328 C38.6807184,86.8513328 30.2819684,83.0982495 24.1882184,77.0338345 C24.165435,77.0143011 24.136135,77.0077928 24.1133517,76.9850011 C24.09056,76.9622178 24.0840517,76.9329178 24.0645184,76.9101345 C18.0002684,70.8168011 14.2470225,62.4209678 14.2470225,53.1634678 C14.2470225,43.9059678 18.0000267,35.5106345 24.0611934,29.4201345 C24.0839767,29.3940928 24.090485,29.3647928 24.1132767,29.3420095 C24.13606,29.3192261 24.16861,29.3094595 24.1914017,29.2899261 C30.0739017,23.4370928 38.1014017,19.7489095 46.974735,19.4982595 L46.974735,19.4982595 L46.974735,9.19575947 L36.372235,9.19575947 C35.8416684,9.19575947 35.411985,8.76607614 35.411985,8.23550947 C35.411985,7.7049428 35.841635,7.27525947 36.372235,7.27525947 L36.372235,7.27525947 Z M48.8948767,21.4215595 L48.8948767,28.0914761 C48.8948767,28.6220428 48.4651934,29.0517261 47.9346267,29.0517261 C47.40406,29.0517261 46.9743767,28.6220761 46.9743767,28.0914761 L46.9743767,28.0914761 L46.9743767,21.4215595 C38.94021,21.6632261 31.65221,24.8952261 26.18021,30.0482261 L26.18021,30.0482261 L30.88721,34.7552261 C31.26156,35.1328095 31.26156,35.7415428 30.88721,36.1158928 C30.6984017,36.3046928 30.4542684,36.3990928 30.2068684,36.3990928 C29.9594684,36.3990928 29.7153267,36.3046928 29.5265267,36.1158928 L29.5265267,36.1158928 L24.8195267,31.4088928 C19.6661934,36.8805595 16.4337434,44.1692261 16.19286,52.2030595 L16.19286,52.2030595 L22.8627767,52.2030595 C23.3933434,52.2030595 23.8230267,52.6327095 23.8230267,53.1633095 C23.8230267,53.6938761 23.3933767,54.1235595 22.8627767,54.1235595 L22.8627767,54.1235595 L16.19286,54.1235595 C16.4345267,62.1577261 19.6665267,69.4457261 24.8195267,74.9177261 L24.8195267,74.9177261 L29.5265267,70.2107261 C29.90411,69.8363761 30.5128434,69.8363761 30.8871934,70.2107261 C31.2615434,70.5883095 31.2615434,71.1970428 30.8871934,71.5713928 L30.8871934,71.5713928 L26.1801934,76.2783928 C31.65186,81.4317228 38.9405267,84.6641728 46.97436,84.9050561 L46.97436,84.9050561 L46.97436,78.2351428 C46.97436,77.7045761 47.4040434,77.2748928 47.93461,77.2748928 C48.4651767,77.2748928 48.89486,77.7045428 48.89486,78.2351428 L48.89486,78.2351428 L48.89486,84.9050561 C56.9290267,84.6633895 64.2170267,81.4313895 69.6890267,76.2783928 L69.6890267,76.2783928 L64.9820267,71.5713928 C64.6076767,71.1938095 64.6076767,70.5850761 64.9820267,70.2107261 C65.35961,69.8363761 65.9683434,69.8363761 66.3426934,70.2107261 L66.3426934,70.2107261 L71.0497267,74.9177261 C76.20306,69.4460595 79.43551,62.1573928 79.6763934,54.1235595 L79.6763934,54.1235595 L73.0097267,54.1235595 C72.47916,54.1235595 72.0494767,53.6939095 72.0494767,53.1633095 C72.0494767,52.6327428 72.4791267,52.2030595 73.0097267,52.2030595 L73.0097267,52.2030595 L79.6763934,52.2030595 C79.4347267,44.1688928 76.2027267,36.8808928 71.0497267,31.4088928 L71.0497267,31.4088928 L66.3427267,36.1158928 C66.1539184,36.3046928 65.9097767,36.3990928 65.662385,36.3990928 C65.414985,36.3990928 65.1708434,36.3046928 64.9820434,36.1158928 C64.6076934,35.7383095 64.6076934,35.1295761 64.9820434,34.7552261 L64.9820434,34.7552261 L69.6890434,30.0482261 C64.2173767,24.8948928 56.92871,21.6624428 48.8948767,21.4215595 L48.8948767,21.4215595 Z M63.7168365,44.6961294 C64.1937066,44.4635443 64.7682642,44.6613804 65.0008493,45.1382505 C65.2334345,45.6151207 65.0356284,46.1896637 64.5587282,46.4222634 L64.5587282,46.4222634 L53.423419,51.8533166 C54.1239334,54.3366419 52.9820014,57.0448987 50.5843237,58.2179495 C47.8897392,59.5321862 44.6324652,58.4082486 43.3196167,55.7165102 C42.00538,53.0219257 43.1278928,49.7617306 45.8196312,48.4488821 C48.2187372,47.2787599 51.0572847,48.0492323 52.5785312,50.1286439 L52.5785312,50.1286439 Z M51.3612003,51.7907519 C50.5121484,50.0499376 48.4054447,49.3245413 46.6646304,50.1735932 C44.9267372,51.0212203 44.2013409,53.1279241 45.0503928,54.8687383 C45.8994446,56.6095526 48.0018026,57.3334525 49.7426169,56.4844007 C51.4834311,55.6353488 52.2102521,53.5315661 51.3612003,51.7907519 Z" id="Combined-Shape" fill="#283577"></path>
    </g>
</svg>