<?xml version="1.0" encoding="UTF-8"?>
<svg width="95px" height="95px" viewBox="0 0 95 95" version="1.1" xmlns="http://www.w3.org/2000/svg" xmlns:xlink="http://www.w3.org/1999/xlink">
    <!-- Generator: Sketch 58 (84663) - https://sketch.com -->
    <title>feature_waterproof</title>
    <desc>Created with Sketch.</desc>
    <g id="Page-1" stroke="none" stroke-width="1" fill="none" fill-rule="evenodd">
        <path d="M46.4565983,7.20681513 C46.8801251,7.14924522 47.0939517,6.91487073 47.5750483,7.20681513 C55.9963189,12.3261897 68.5915923,15.3895532 78.8632266,11.3516592 C79.4717897,11.1008633 80.2571784,11.5819284 80.3106325,12.2398401 C82.4822676,43.9848723 76.2650541,60.9133104 68.4029558,70.7655654 C60.2732717,80.4700271 51.8520011,83.6280036 47.6413659,86.7859801 C47.2671246,87.1437156 46.6174341,87.1560528 46.2268029,86.8188757 C42.3940721,83.4682626 32.9944604,80.5895565 25.3009982,70.7331962 C17.611957,60.8771516 11.6783298,43.9767142 13.820701,12.241156 C13.8823868,11.5996972 14.6308062,11.1309272 15.235264,11.3529751 C25.5597417,15.3949744 38.1879633,12.3193159 46.4571247,7.20813095 L46.4571247,7.20813095 Z M47.0163497,9.28060565 C38.6224482,14.2931249 26.5210824,17.2701809 15.8587011,13.7215627 C13.9997057,44.2402473 19.7524861,60.2355034 26.9442512,69.4503735 C33.9391691,78.4100791 40.2714383,80.4701324 46.9163471,84.7465589 C52.9038705,80.4706587 59.2196129,78.3651305 66.7568606,69.4503735 C74.1136826,60.2322402 80.1458387,44.2360367 78.2708428,13.7215627 C67.6505679,17.2700756 55.532149,14.2889458 47.0163497,9.28060565 L47.0163497,9.28060565 Z M37.6027514,45.6812099 C37.9706313,45.6446142 38.3269488,45.817958 38.5272587,46.1280551 C41.2581793,50.4330541 44.5979434,54.5315058 44.5979434,58.4991953 C44.5979434,60.1999436 43.8198287,61.8717486 42.5948442,63.1679818 C41.3698597,64.464214 39.6441128,65.4021821 37.6949556,65.4021821 C35.7457984,65.4021821 34.0200514,64.4642633 32.7950669,63.1679818 C31.5700824,61.8716993 30.7919678,60.1998942 30.7919678,58.4991953 C30.7919678,54.5314565 34.1314854,50.4328075 36.8626525,46.1280551 C37.0282749,45.8738131 37.299868,45.7081759 37.6022583,45.6812099 L37.6022583,45.6812099 Z M56.3394325,45.6812099 C56.7073124,45.6446142 57.0636299,45.817958 57.2639398,46.1280551 C59.9948604,50.4330541 63.3346245,54.5315058 63.3346245,58.4991953 C63.3346245,60.1999436 62.5565098,61.8717486 61.3315253,63.1679818 C60.1065408,64.464214 58.3807939,65.4021821 56.4316367,65.4021821 C54.4824795,65.4021821 52.7567325,64.4642633 51.531748,63.1679818 C50.3067636,61.8716993 49.5286489,60.1998942 49.5286489,58.4991953 C49.5286489,54.5314565 52.8681665,50.4328075 55.5993336,46.1280551 C55.764956,45.8738131 56.0365491,45.7081759 56.3389394,45.6812099 L56.3389394,45.6812099 Z M37.6949556,48.5163656 C35.1949399,52.3973239 32.76425,56.0587672 32.76425,58.499072 C32.76425,59.5738179 33.3132348,60.8431294 34.2280779,61.8119145 C35.142921,62.7806995 36.3775697,63.4297776 37.6949556,63.4297776 C39.0123415,63.4297776 40.2469409,62.7807488 41.1618333,61.8119145 C42.0767257,60.8430801 42.6256611,59.5718949 42.6256611,58.499072 C42.6256611,56.0588658 40.1949712,52.3973732 37.6949556,48.5163656 Z M56.4316367,48.5163656 C53.9316211,52.3973239 51.5009311,56.0587672 51.5009311,58.499072 C51.5009311,59.5738179 52.0499159,60.8431294 52.964759,61.8119145 C53.8796021,62.7806995 55.1142508,63.4297776 56.4316367,63.4297776 C57.7490226,63.4297776 58.983622,62.7807488 59.8985144,61.8119145 C60.8134068,60.8430801 61.3623422,59.5718949 61.3623422,58.499072 C61.3623422,56.0588658 58.9316523,52.3973732 56.4316367,48.5163656 Z M46.9713385,22.0157955 C47.3392184,21.9811277 47.6955359,22.1525437 47.8958458,22.4626407 C50.6267663,26.7676397 53.9665304,30.8661408 53.9665304,34.8357532 C53.9665304,36.5365015 53.1884158,38.2063835 51.9634313,39.5045397 C50.7384468,40.8007728 49.0126999,41.738741 47.0635427,41.738741 C45.1143855,41.738741 43.3886385,40.8007728 42.163654,39.5045397 C40.9386695,38.2082572 40.1605549,36.5364521 40.1605549,34.8357532 C40.1605549,30.8660421 43.5000725,26.7673932 46.2312396,22.4626407 C46.396862,22.2084036 46.6684551,22.0427615 46.9708454,22.0157955 Z M47.0632961,24.8509512 C44.5632805,28.7338818 42.1325906,32.3953251 42.1325906,34.8356299 C42.1325906,35.9084035 42.681526,37.179638 43.5964184,38.1465001 C44.5112616,39.1152851 45.7459102,39.7643632 47.0632961,39.7643632 C48.380682,39.7643632 49.6152814,39.1153344 50.5301738,38.1465001 C51.4450662,37.1776658 51.9940017,35.9064806 51.9940017,34.8336576 C51.9940017,32.3934515 49.5633118,28.7319588 47.0632961,24.8509512 L47.0632961,24.8509512 Z" id="Combined-Shape" fill="#283577"></path>
    </g>
</svg>