<?xml version="1.0" encoding="UTF-8"?>
<svg width="96px" height="95px" viewBox="0 0 96 95" version="1.1" xmlns="http://www.w3.org/2000/svg" xmlns:xlink="http://www.w3.org/1999/xlink">
    <!-- Generator: Sketch 58 (84663) - https://sketch.com -->
    <title>feature_conformal</title>
    <desc>Created with Sketch.</desc>
    <g id="Page-1" stroke="none" stroke-width="1" fill="none" fill-rule="evenodd">
        <path d="M79.7398117,26.1942899 C82.1148517,26.2536659 84.0273317,28.1661299 84.0866917,30.5411699 C84.0210677,32.9162099 82.1116517,34.8255699 79.7398117,34.8880499 L57.9990117,34.8880499 L57.9990117,54.0192499 L60.0239717,82.5408483 C60.1645957,83.6252483 59.8552197,84.7190083 59.1739717,85.5721283 C58.4895957,86.4252485 57.4864517,86.9627685 56.3989317,87.0627685 L53.3645317,87.0634228 C52.5082917,87.0695795 51.6832517,86.7602019 51.0426917,86.1946099 C50.2239717,85.4414819 49.7489317,84.3914899 49.7208517,83.2821299 L48.4333317,54.8885299 L46.6958117,54.8885299 L45.6176517,83.3069283 C45.5895237,84.4038083 45.1207797,85.4444483 44.3207717,86.1944483 C43.5832677,86.8163205 42.6207717,87.1131685 41.6582917,87.0100486 L39.0520597,87.0100486 C37.9551797,86.9381734 36.9395797,86.4225446 36.2333397,85.5818883 C35.5302117,84.7412483 35.1989397,83.6506083 35.3208597,82.5600483 L37.1302197,53.9664499 L37.1302197,34.8880499 L16.2582197,34.8880499 C13.8582173,34.8880499 11.9113373,32.9411699 11.9113373,30.5411699 C11.9113373,28.1411699 13.8582173,26.1942899 16.2582197,26.1942899 L79.7398117,26.1942899 Z M79.7395717,27.9318979 L16.2579717,27.9318979 C14.8486133,28.0037699 13.7204533,29.1318979 13.6517333,30.5412579 C13.7204837,31.9537379 14.8486133,33.0787779 16.2579717,33.1506179 L38.8675717,33.1506179 L38.8675717,54.0194179 L37.0675717,82.7162179 C36.9769477,83.3380899 37.1456997,83.9693379 37.5363237,84.4630979 C37.9269557,84.9568579 38.5019237,85.2693379 39.1300837,85.3224579 L41.7394437,85.3224579 C42.2675717,85.4005827 42.8019237,85.2537075 43.2176037,84.9162099 C43.6738517,84.4537139 43.9238517,83.8255699 43.9113557,83.1755699 L44.9549317,53.1505299 L50.1736517,53.1505299 L51.5205317,83.2193299 C51.5236597,83.8599539 51.7861557,84.4693299 52.2424037,84.9162099 C52.6361557,85.2412099 53.1455237,85.3880819 53.6517637,85.3224579 L56.3736037,85.3224579 C56.9767317,85.2380819 57.5236037,84.9130819 57.8892037,84.4255779 C58.2548277,83.9349539 58.4110757,83.3193379 58.3204517,82.7162179 L56.2579717,54.0818179 L56.2579717,33.1506179 L79.7395717,33.1506179 C81.1458117,33.0756179 82.2739717,31.9506179 82.3458117,30.5412579 C82.2770597,29.1318979 81.1489317,28.0037379 79.7395717,27.9318979 Z M50.5581317,7.6599699 C53.4830917,8.8693299 55.3894117,11.7224499 55.3894117,14.8881299 C55.3894117,19.2099699 51.8862917,22.7162899 47.5644517,22.7162899 C44.3989317,22.7161299 41.5458117,20.8098899 40.3332517,17.8848499 C39.1238917,14.9598899 39.7926277,11.5942099 42.0301317,9.3568499 C44.2676517,7.1162099 47.6332517,6.4474899 50.5581317,7.6599699 Z M47.5645317,8.8033299 C45.1020517,8.8033299 42.8832517,10.2846099 41.9395717,12.5595699 C40.9989317,14.8346099 41.5176997,17.4533299 43.2614117,19.1939699 C45.0020517,20.9346099 47.6176517,21.4533299 49.8926917,20.5126899 C52.1677317,19.5689299 53.6520517,17.3502099 53.6520517,14.8877299 C53.6520517,13.2752499 53.0082997,11.7252499 51.8676517,10.5846099 C50.7270117,9.4439699 49.1770117,8.8033299 47.5645317,8.8033299 Z" id="Combined-Shape" fill="#283577"></path>
    </g>
</svg>