<?xml version="1.0" encoding="UTF-8"?>
<svg width="96px" height="95px" viewBox="0 0 96 95" version="1.1" xmlns="http://www.w3.org/2000/svg" xmlns:xlink="http://www.w3.org/1999/xlink">
    <!-- Generator: Sketch 58 (84663) - https://sketch.com -->
    <title>feature_battery</title>
    <desc>Created with Sketch.</desc>
    <g id="Page-1" stroke="none" stroke-width="1" fill="none" fill-rule="evenodd">
        <path d="M47.9987645,7.06329614 C70.0537645,7.06329614 87.9987645,25.0082961 87.9987645,47.0632961 C87.9987645,59.2742961 82.4909645,70.2194961 73.8347645,77.5632961 L73.8347645,77.5632961 L80.0886645,77.5632961 C80.6433545,77.5632961 81.0886645,78.0086061 81.0886645,78.5632961 C81.0886645,79.1179861 80.6433545,79.5632961 80.0886645,79.5632961 L80.0886645,79.5632961 L71.2722645,79.5632961 C64.7142645,84.2780961 56.6789645,87.0632961 47.9992645,87.0632961 C25.9442645,87.0632961 7.99926454,69.1182961 7.99926454,47.0632961 C7.99926454,34.8522961 13.5070645,23.9070961 22.1632645,16.5632961 L22.1632645,16.5632961 L15.9093645,16.5632961 C15.3546745,16.5632961 14.9093645,16.1179861 14.9093645,15.5632961 C14.9093645,15.0086061 15.3546745,14.5632961 15.9093645,14.5632961 L15.9093645,14.5632961 L24.7257645,14.5632961 C31.2837645,9.84849614 39.3190645,7.06329614 47.9987645,7.06329614 Z M47.9987645,9.06329614 C39.7487645,9.06329614 32.1120645,11.7155961 25.8737645,16.1999961 L25.8737645,16.1999961 L25.8737645,24.5319961 C25.8737645,25.0866861 25.4284545,25.5319961 24.8737645,25.5319961 C24.3190745,25.5319961 23.8737645,25.0866861 23.8737645,24.5319961 L23.8737645,24.5319961 L23.8737645,17.7272961 C15.4049645,24.7002961 9.99876454,35.2622961 9.99876454,47.0632961 C9.99876454,68.0162961 27.0457645,85.0632961 47.9987645,85.0632961 C56.2487645,85.0632961 63.8854645,82.4109961 70.1237645,77.9265961 L70.1237645,77.9265961 L70.1237645,69.5945961 C70.1237645,69.0399061 70.5690745,68.5945961 71.1237645,68.5945961 C71.6784545,68.5945961 72.1237645,69.0399061 72.1237645,69.5945961 L72.1237645,69.5945961 L72.1237645,76.3992961 C80.5925645,69.4262961 85.9987645,58.8642961 85.9987645,47.0632961 C85.9987645,26.1102961 68.9517645,9.06329614 47.9987645,9.06329614 Z M63.7610049,36.0129848 C65.3412475,36.0129848 66.6436948,37.3154322 66.6436948,38.8956747 L66.6436948,38.8956747 L66.6436948,41.2979163 L70.4872814,41.2979163 C71.0184026,41.2979163 71.448178,41.7276774 71.448178,42.258813 L71.448178,42.258813 L71.448178,51.8677793 C71.448178,52.3989005 71.018417,52.8286759 70.4872814,52.8286759 L70.4872814,52.8286759 L66.6436948,52.8286759 L66.6436948,55.2309175 C66.6436948,56.8111601 65.3412475,58.1136074 63.7610049,58.1136074 L63.7610049,58.1136074 L32.051416,58.1136074 C30.4711734,58.1136074 29.1687261,56.8111601 29.1687261,55.2309175 L29.1687261,55.2309175 L29.1687261,38.8956747 C29.1687261,37.3154322 30.4711734,36.0129848 32.051416,36.0129848 L32.051416,36.0129848 Z M49.8731659,37.9347781 L32.0514256,37.9345379 C31.5015381,37.9345379 31.090529,38.3455614 31.090529,38.8954345 L31.090529,38.8954345 L31.090529,55.2306773 C31.090529,55.7805648 31.5015525,56.1915739 32.0514256,56.1915739 L32.0514256,56.1915739 L43.5672913,56.1915739 L49.3927271,48.0239525 L44.5430818,48.0239525 C44.1789981,48.0258743 43.8449184,47.8231636 43.6797643,47.50036 C43.5146149,47.175673 43.5465167,46.7852991 43.7623437,46.4925235 L43.7623437,46.4925235 L49.8731659,37.9347781 Z M63.7610049,37.9347781 L52.2451392,37.9347781 L46.4048239,46.1023034 L51.2693631,46.1023034 C51.6278256,46.1041772 51.9562408,46.3049757 52.1195164,46.6240222 C52.2846705,46.943088 52.256521,47.3259188 52.0500772,47.6186944 L52.0500772,47.6186944 L45.9243611,56.1918142 L63.7610049,56.1918142 C64.3108924,56.1918142 64.7219015,55.7807906 64.7219015,55.2309175 L64.7219015,55.2309175 L64.7219015,38.8956747 C64.7219015,38.3457872 64.310878,37.9347781 63.7610049,37.9347781 L63.7610049,37.9347781 Z M69.5263847,43.2197096 L66.6436948,43.2197096 L66.6436948,50.9068827 L69.5263847,50.9068827 L69.5263847,43.2197096 Z" id="Combined-Shape" fill="#283577"></path>
    </g>
</svg>