<?xml version="1.0" encoding="UTF-8"?>
<svg width="95px" height="95px" viewBox="0 0 95 95" version="1.1" xmlns="http://www.w3.org/2000/svg" xmlns:xlink="http://www.w3.org/1999/xlink">
    <!-- Generator: Sketch 58 (84663) - https://sketch.com -->
    <title>feature_home</title>
    <desc>Created with Sketch.</desc>
    <g id="Page-1" stroke="none" stroke-width="1" fill="none" fill-rule="evenodd">
        <path d="M31.48702,13.0632961 C32.2324804,13.0975701 32.5109492,13.6545185 32.5837854,14.1600615 L32.5837854,24.8535236 L47.2530219,13.269488 C47.8056929,12.9353146 48.3926708,13.128104 48.6239786,13.269488 L90.3010618,46.1724485 C90.7466227,46.4766254 90.866576,47.2906008 90.5067053,47.7490487 C90.1468347,48.2074966 89.3885531,48.2802999 88.9301051,47.9204183 L47.9385002,15.5658405 L6.94689533,47.9204183 C6.48848031,48.2802889 5.73014385,48.2074637 5.37029514,47.7490487 C5.01044643,47.2906337 5.10466954,46.4637494 5.57593864,46.1724485 L21.6161319,33.5256472 L21.6161319,14.1611583 C21.6161319,13.5870674 22.1388064,13.0643929 22.7128972,13.0643929 L31.48702,13.0632961 Z M30.3902547,15.2568268 L23.8096626,15.2568268 L23.8096626,31.7763065 L30.3902547,26.5666711 L30.3902547,15.2568268 Z M76.4543993,40.5855258 L78.64793,42.2992217 L78.64793,79.9665308 C78.64793,80.5706072 78.1552411,81.0632961 77.5511646,81.0632961 L58.9061537,81.0632961 C58.3020773,81.0632961 57.8093884,80.5706072 57.8093884,79.9665308 L57.8093884,68.9988773 C57.8093884,63.5107732 53.4266044,59.1279892 47.9385002,59.1279892 C42.4503961,59.1279892 38.0676121,63.5107732 38.0676121,68.9988773 L38.0676121,79.9665308 C38.0676121,80.5706072 37.5749232,81.0632961 36.9708467,81.0632961 L18.3258358,81.0632961 C17.7217594,81.0632961 17.2290705,80.5706072 17.2290705,79.9665308 L17.2290705,42.2992217 L19.4226012,40.5855258 L19.4226012,78.8692171 L35.8740814,78.8692171 L35.8740814,68.9983289 C35.8740814,62.3320795 41.2722508,56.9339101 47.9385002,56.9339101 C54.6047497,56.9339101 60.0029191,62.3320795 60.0029191,68.9983289 L60.0029191,78.8692171 L76.4543993,78.8692171 L76.4543993,40.5855258 Z" id="Fill-1" fill="#283577"></path>
    </g>
</svg>