<?xml version="1.0" encoding="UTF-8"?>
<svg width="95px" height="95px" viewBox="0 0 95 95" version="1.1" xmlns="http://www.w3.org/2000/svg" xmlns:xlink="http://www.w3.org/1999/xlink">
    <!-- Generator: Sketch 58 (84663) - https://sketch.com -->
    <title>feature_activity</title>
    <desc>Created with Sketch.</desc>
    <g id="Page-1" stroke="none" stroke-width="1" fill="none" fill-rule="evenodd">
        <path d="M16.1339514,47.9302961 C16.6847314,47.9302961 17.1339514,48.3795161 17.1339514,48.9302961 L17.1339514,48.9302961 L17.1339514,67.8132961 L43.3799514,67.8132961 C43.9029514,57.7544961 52.2309514,49.7232961 62.4189514,49.7232961 L62.4189514,49.7232961 L79.6069514,49.7232961 C80.1577314,49.7232961 80.6069514,50.1686061 80.6069514,50.7232961 C80.6069514,51.2740761 80.1577314,51.7232961 79.6069514,51.7232961 L79.6069514,51.7232961 L62.4159514,51.7232961 C53.3300514,51.7232961 45.9003914,58.8562961 45.3769514,67.8132961 L45.3769514,67.8132961 L79.6069514,67.8132961 C80.1577314,67.8132961 80.6069514,68.2586061 80.6069514,68.8132961 C80.6069514,69.3640761 80.1577314,69.8132961 79.6069514,69.8132961 L79.6069514,69.8132961 L17.1339514,69.8122961 L17.1339514,80.2072961 L79.6069514,80.2072961 C80.1577314,80.2072961 80.6069514,80.6526061 80.6069514,81.2072961 C80.6069514,81.7580761 80.1577314,82.2072961 79.6069514,82.2072961 L79.6069514,82.2072961 L16.1339514,82.2072961 C15.5792614,82.2072961 15.1339514,81.7580761 15.1339514,81.2072961 L15.1339514,81.2072961 L15.1339514,48.9302961 C15.1339514,48.3795161 15.5792614,47.9302961 16.1339514,47.9302961 Z M31.8799514,47.6262961 C36.2002514,47.6262961 39.7119514,51.1418961 39.7119514,55.4582961 C39.7119514,59.7785961 36.1963514,63.2902961 31.8799514,63.2902961 C27.5596514,63.2902961 24.0479514,59.7785961 24.0479514,55.4582961 C24.0479514,51.1418961 27.5596514,47.6262961 31.8799514,47.6262961 Z M31.8759514,49.6262961 C28.6572514,49.6262961 26.0439514,52.2434961 26.0439514,55.4582961 C26.0439514,58.6730961 28.6611514,61.2902961 31.8759514,61.2902961 C35.0907514,61.2902961 37.7079514,58.6730961 37.7079514,55.4582961 C37.7079514,52.2434961 35.0907514,49.6262961 31.8759514,49.6262961 Z" id="Combined-Shape" fill="#283577"></path>
        <path d="M60.117321,27.4906059 C59.6412589,30.5030273 58.1355005,33.1985766 55.9160636,35.1008146 C51.0011529,39.3020717 43.5500085,38.9849483 38.9522211,34.4667185 C34.1169669,29.6314656 34.1169669,21.7835399 38.7932046,16.8688804 C41.0125661,14.6495189 44.0249875,13.2222122 47.4341901,13.1428057 L49.3365036,13.0632961 L48.1477933,14.5690545 C45.7694177,17.8191929 46.0864658,22.4167289 48.9409034,25.2703373 C51.4773883,27.8862287 55.5999931,28.3624164 58.7704736,26.5385546 L60.4352485,25.5873853 L60.118198,27.4896988 L60.117321,27.4906059 Z M54.7274789,33.6735079 C56.1547103,32.4052905 57.2639639,30.8201508 57.8979595,28.996314 C54.2512912,30.1850244 50.2877508,29.2338576 47.5932067,26.5394115 C44.6601918,23.6063966 43.8671319,19.0086093 45.6908932,15.1244754 C43.5510387,15.6005375 41.647695,16.7097408 40.1419869,18.2165546 C36.0987884,22.3381541 36.1784462,28.9972438 40.2214964,33.1190947 C44.1850368,37.0032286 50.5262492,37.2406945 54.7282604,33.6736838 L54.7274789,33.6735079 Z" id="Fill-1" fill="#283577"></path>
    </g>
</svg>