<?xml version="1.0" encoding="UTF-8"?>
<svg width="95px" height="95px" viewBox="0 0 95 95" version="1.1" xmlns="http://www.w3.org/2000/svg" xmlns:xlink="http://www.w3.org/1999/xlink">
    <!-- Generator: Sketch 58 (84663) - https://sketch.com -->
    <title>feature_streaming</title>
    <desc>Created with Sketch.</desc>
    <g id="Page-1" stroke="none" stroke-width="1" fill="none" fill-rule="evenodd">
        <path d="M47.8703675,64.6592845 C51.9729406,64.6592845 55.3270438,68.0087173 55.3270438,72.1159608 C55.3270438,76.2138634 51.9776111,79.5632961 47.8703675,79.5632961 C43.7724649,79.5632961 40.4230322,76.2138634 40.4230322,72.1159608 C40.4230322,68.0133877 43.7724649,64.6592845 47.8703675,64.6592845 Z M47.8703675,67.0543882 C45.0728864,67.0543882 42.8181358,69.3091388 42.8181358,72.1206312 C42.8181358,74.9181123 45.0730062,77.1728629 47.8703675,77.1728629 C50.6865304,77.1728629 52.9366106,74.9179926 52.9366106,72.1206312 C52.9366106,69.3044683 50.68186,67.0543882 47.8703675,67.0543882 Z M47.8703675,52.6562225 C53.3762558,52.6562225 58.8869103,54.7519382 63.0830122,58.9433696 C63.3122356,59.1679106 63.4432118,59.471981 63.4478943,59.7947571 C63.4478943,60.1128628 63.3215885,60.4216036 63.0970475,60.6461446 C62.8678361,60.875368 62.5637657,61.0016738 62.2409896,61.0016738 C61.9182134,60.9969914 61.614143,60.8660151 61.3896021,60.6367917 C53.9096933,53.1661041 41.8313052,53.1661041 34.3512767,60.6367917 C34.1267357,60.8660151 33.8226654,60.9970034 33.4998892,61.0016738 C33.1817955,61.0016738 32.8730546,60.875368 32.6438313,60.6461446 C32.4192903,60.4216036 32.2929845,60.1128508 32.2929845,59.7947571 C32.2976669,59.471981 32.4286432,59.1679106 32.6578666,58.9433696 C36.8538487,54.7519382 42.3643835,52.6562225 47.8703675,52.6562225 Z M47.8703675,39.9597779 C56.62713,39.9597779 65.3845871,43.2951993 72.0599805,49.9659223 C72.2938744,50.1857928 72.4248506,50.4945336 72.4296587,50.8173098 C72.4342155,51.1354035 72.3079097,51.4488268 72.0786863,51.6733677 C71.8541453,51.9025911 71.540722,52.0288969 71.2226283,52.0242145 C70.9459631,52.0242145 70.6796094,51.9245469 70.4677527,51.7517198 L70.3665704,51.6593324 C57.9370601,39.2347321 37.8086089,39.2347321 25.3744281,51.6593324 C25.1498872,51.8885558 24.8411463,52.0242145 24.5183702,52.0242145 C24.2002765,52.0288849 23.8915356,51.9025911 23.6623122,51.6733677 C23.4330888,51.4488268 23.3067831,51.1354035 23.3113398,50.8173098 C23.3161359,50.4945336 23.4471242,50.1857808 23.681018,49.9659223 C30.3561719,43.2951993 39.1132697,39.9597779 47.8703675,39.9597779 Z M47.8703675,27.2597407 C59.8782557,27.2597407 71.8867067,31.8398974 81.0413917,40.9992529 C81.2706032,41.2237939 81.4017171,41.5278643 81.4017171,41.8506404 C81.4062738,42.1687341 81.279968,42.477475 81.0507446,42.7066984 C80.8262037,42.9312393 80.5174628,43.0575451 80.1946867,43.0575451 C79.9220349,43.0535316 79.6562459,42.9567308 79.4474173,42.7848048 L79.3479816,42.6926631 C61.9512539,25.2910373 33.7848347,25.2910373 16.3927894,42.6926631 C16.1729308,42.9218865 15.86419,43.0528627 15.5460843,43.0575451 C15.2233082,43.0575451 14.9145673,42.9312393 14.6900264,42.7066984 C14.460803,42.4774869 14.3344972,42.1687461 14.3390539,41.8506404 C14.3390539,41.5278643 14.4701558,41.2237939 14.6993792,40.9992529 C23.8534655,31.8394184 35.8625153,27.2597407 47.8703675,27.2597407 Z M47.8703675,14.5632961 C63.1297407,14.5632961 78.3890659,20.3825478 90.018372,32.0165244 C90.2475835,32.2410653 90.3786974,32.5498182 90.3786974,32.8679119 C90.3832541,33.190688 90.2569483,33.4947464 90.0277249,33.7239698 C89.8031839,33.9485108 89.4944311,34.0748166 89.1763374,34.0748166 C88.8535613,34.0701342 88.5494909,33.9391579 88.3249499,33.7099345 C65.9786327,11.3492466 29.76227,11.3492466 7.4159528,33.7099345 C7.19141183,33.9391579 6.88734144,34.0701461 6.5645653,34.0748166 C6.2464596,34.0748166 5.93771876,33.9485108 5.71317779,33.7239698 C5.4839544,33.4947584 5.35764861,33.190688 5.36220534,32.8679119 C5.36220534,32.5952498 5.45852513,32.3294681 5.63039566,32.1176931 L5.72253067,32.0165244 C17.3519565,20.3826795 32.611162,14.5632961 47.8703675,14.5632961 Z" id="Combined-Shape" fill="#283577"></path>
    </g>
</svg>