<?xml version="1.0" encoding="UTF-8"?>
<svg width="412px" height="80px" viewBox="0 0 412 80" version="1.1" xmlns="http://www.w3.org/2000/svg" xmlns:xlink="http://www.w3.org/1999/xlink">
    <!-- Generator: Sketch 58 (84663) - https://sketch.com -->
    <title>BioStamp3-color</title>
    <desc>Created with Sketch.</desc>
    <g id="Page-1" stroke="none" stroke-width="1" fill="none" fill-rule="evenodd">
        <g id="BioStamp3-color" transform="translate(0.000000, -0.430570)">
            <path d="M372.200228,0.94434375 C383.320228,0.94434375 390.520228,7.42434375 390.520228,16.3043438 C390.520228,23.5043438 386.200228,28.7843438 378.840228,30.0643438 L378.840228,30.6243438 C387.080228,32.3843438 391.720228,37.9043438 391.720228,45.9843438 C391.720228,56.7843438 383.880228,64.1443438 372.200228,64.1443438 C362.120228,64.1443438 355.480228,60.0643438 352.760228,50.6243438 L362.600228,47.7443438 C363.960228,53.9043438 366.840228,56.3843438 372.120228,56.3843438 C377.880228,56.3843438 381.480228,52.5443438 381.480228,46.0643438 C381.480228,39.1043438 378.200228,35.0243438 369.640228,35.0243438 L365.000228,35.0243438 L365.000228,26.8643438 L369.240228,26.8643438 C377.240228,26.8643438 380.440228,23.4243438 380.440228,17.2643438 C380.440228,11.6643438 377.160228,8.70434375 372.040228,8.70434375 C367.800228,8.70434375 364.360228,11.3443438 363.560228,17.1043438 L353.720228,14.1443438 C356.040228,5.50434375 362.920228,0.94434375 372.200228,0.94434375 Z M402.689453,2.93057033 L402.689453,3.91689846 L400.091797,3.91689846 L400.091797,10.1571328 L398.587891,10.1571328 L398.587891,3.91689846 L396,3.91689846 L396,2.93057033 L402.689453,2.93057033 Z M405.882812,2.93057033 L407.611328,8.00869533 L407.630859,8.00869533 L409.417969,2.93057033 L411.166016,2.93057033 L411.166016,10.1571328 L409.779297,10.1571328 L409.779297,4.69814846 L409.759766,4.69814846 L408.011719,9.66885158 L406.800781,9.66885158 L405.091797,4.62978908 L405.072266,4.62978908 L405.072266,10.1571328 L403.890625,10.1571328 L403.890625,2.93057033 L405.882812,2.93057033 Z" id="3-TM" fill="#FF2D47"></path>
            <path d="M329.499228,18.9603437 C336.879228,18.9603437 342.278228,22.4693437 344.528228,29.3993437 C345.608228,32.7293437 346.059228,35.7893437 346.059228,41.6383437 C346.059228,47.4883437 345.608228,50.5483437 344.528228,53.8783437 C342.278228,60.8073437 336.879228,64.3173437 329.499228,64.3173437 C323.649228,64.3173437 320.050228,62.1583437 317.979228,59.1883437 L317.890228,59.1883437 L317.890228,78.6273437 C317.890228,79.1673437 317.529228,79.5273437 316.989228,79.5273437 L308.710228,79.5273437 C308.170228,79.5273437 307.810228,79.1673437 307.810228,78.6273437 L307.810228,20.8493437 C307.810228,20.3093437 308.170228,19.9493437 308.710228,19.9493437 L316.989228,19.9493437 C317.529228,19.9493437 317.890228,20.3093437 317.890228,20.8493437 L317.890228,24.0893437 L317.979228,24.0893437 C320.050228,21.1193437 323.649228,18.9603437 329.499228,18.9603437 Z M90.1892769,18.9603437 C98.9182769,18.9603437 105.577277,23.3693437 108.008277,30.9283437 C108.997277,33.9893437 109.448277,36.8693437 109.448277,41.6383437 C109.448277,46.4083437 108.997277,49.2883437 108.008277,52.3483437 C105.577277,59.9083437 98.9182769,64.3173437 90.1892769,64.3173437 C81.3682769,64.3173437 74.7092769,59.9083437 72.2802769,52.3483437 C71.2892769,49.2883437 70.8392769,46.4083437 70.8392769,41.6383437 C70.8392769,36.8693437 71.2892769,33.9893437 72.2802769,30.9283437 C74.7092769,23.3693437 81.3682769,18.9603437 90.1892769,18.9603437 Z M136.867277,1.14034375 C144.518277,1.14034375 151.807277,3.57034375 156.667277,7.25934375 C157.116277,7.62034375 157.207277,7.98034375 156.847277,8.52034375 L152.527277,15.1793437 C152.167277,15.6303437 151.717277,15.7193437 151.267277,15.4503437 C146.318277,12.2103437 141.728277,10.6793437 136.598277,10.6793437 C130.388277,10.6793437 126.968277,14.0993437 126.968277,18.8703437 C126.968277,23.0993437 129.938277,25.9793437 138.218277,27.1493437 L141.457277,27.5993437 C153.247277,29.2193437 159.727277,34.7983437 159.727277,45.3283437 C159.727277,56.2173437 151.897277,64.3173437 136.688277,64.3173437 C127.688277,64.3173437 118.958277,60.7173437 114.189277,56.2173437 C113.828277,55.8583437 113.649277,55.3183437 114.009277,54.8683437 L119.588277,48.3883437 C119.948277,47.9383437 120.489277,47.9383437 120.848277,48.2983437 C124.808277,51.4483437 130.657277,54.7783437 137.497277,54.7783437 C144.787277,54.7783437 149.017277,51.0883437 149.017277,45.9593437 C149.017277,41.5483437 146.318277,38.6693437 137.858277,37.4993437 L134.617277,37.0483437 C122.828277,35.4283437 116.168277,29.7583437 116.168277,19.5893437 C116.168277,8.52034375 124.268277,1.14034375 136.867277,1.14034375 Z M209.167277,18.9603437 C222.397277,18.9603437 227.256277,23.4603437 227.256277,34.0793437 L227.256277,62.4273437 C227.256277,62.9673437 226.897277,63.3283437 226.357277,63.3283437 L218.797277,63.3283437 C218.257277,63.3283437 217.897277,62.9673437 217.897277,62.4273437 L217.897277,59.2783437 L217.807277,59.2783437 C215.737277,62.2483437 211.687277,64.3173437 205.568277,64.3173437 C197.648277,64.3173437 190.988277,60.1773437 190.988277,51.0883437 C190.988277,41.6383437 197.648277,37.3193437 208.358277,37.3193437 L217.177277,37.3193437 C217.537277,37.3193437 217.717277,37.1383437 217.717277,36.7793437 L217.717277,34.7093437 C217.717277,29.7583437 215.377277,27.5093437 208.087277,27.5093437 C203.228277,27.5093437 200.258277,28.8593437 198.188277,30.4793437 C197.738277,30.8383437 197.198277,30.7493437 196.928277,30.2983437 L193.598277,24.3593437 C193.327277,23.9093437 193.417277,23.4603437 193.778277,23.1893437 C197.287277,20.6703437 202.058277,18.9603437 209.167277,18.9603437 Z M176.887277,6.63034375 C177.427277,6.63034375 177.787277,6.99034375 177.787277,7.53034375 L177.787277,19.4093438 C177.787277,19.7693438 177.967277,19.9493438 178.327277,19.9493438 L184.087277,19.9493438 C184.627277,19.9493438 184.987277,20.3093438 184.987277,20.8493438 L184.987277,26.8793438 C184.987277,27.4193438 184.627277,27.7793438 184.087277,27.7793438 L178.327277,27.7793438 C177.967277,27.7793438 177.787277,27.9593438 177.787277,28.3193438 L177.787277,50.8183438 C177.787277,53.8783438 179.047277,54.8683438 181.837277,54.8683438 L184.087277,54.8683438 C184.627277,54.8683438 184.987277,55.2283438 184.987277,55.7683438 L184.987277,62.9673438 C184.987277,63.5073438 184.627277,63.8683438 184.087277,63.8683438 L179.767277,63.8683438 C171.037277,63.8683438 167.707277,59.6373438 167.707277,51.1783438 L167.707277,28.3193438 C167.707277,27.9593438 167.528277,27.7793438 167.167277,27.7793438 L164.287277,27.7793438 C163.747277,27.7793438 163.388277,27.4193438 163.388277,26.8793438 L163.388277,20.8493438 C163.388277,20.3093438 163.747277,19.9493438 164.287277,19.9493438 L167.167277,19.9493438 C167.528277,19.9493438 167.707277,19.7693438 167.707277,19.4093438 L167.707277,7.53034375 C167.707277,6.99034375 168.068277,6.63034375 168.608277,6.63034375 L176.887277,6.63034375 Z M24.5907985,2.13034375 C37.5507985,2.13034375 43.6697985,8.61034375 43.6697985,18.4203437 C43.6697985,25.3493437 40.4307985,29.3093437 36.5607985,31.3793437 L36.5607985,31.5593437 C40.3397985,32.9993437 44.7497985,37.8593437 44.7497985,45.3283437 C44.7497985,57.4783437 37.1007985,63.3283437 23.6917985,63.3283437 L1.82179855,63.3283437 C1.28179855,63.3283437 0.921798549,62.9673437 0.921798549,62.4273437 L0.921798549,3.03034375 C0.921798549,2.49034375 1.28179855,2.13034375 1.82179855,2.13034375 L24.5907985,2.13034375 Z M61.4709392,19.9493437 C62.0109392,19.9493437 62.3709392,20.3093437 62.3709392,20.8493437 L62.3709392,62.4273437 C62.3709392,62.9673437 62.0109392,63.3283437 61.4709392,63.3283437 L53.1919392,63.3283437 C52.6519392,63.3283437 52.2909392,62.9673437 52.2909392,62.4273437 L52.2909392,20.8493437 C52.2909392,20.3093437 52.6519392,19.9493437 53.1919392,19.9493437 L61.4709392,19.9493437 Z M283.939277,18.9603437 C294.018277,18.9603437 299.688277,25.7993437 299.688277,35.0693437 L299.688277,62.4273437 C299.688277,62.9673437 299.328277,63.3283437 298.789277,63.3283437 L290.508277,63.3283437 C289.968277,63.3283437 289.609277,62.9673437 289.609277,62.4273437 L289.609277,37.4093437 C289.609277,31.8293437 286.819277,27.9593437 281.419277,27.9593437 C276.199277,27.9593437 273.139277,31.8293437 273.139277,37.4093437 L273.139277,62.4273437 C273.139277,62.9673437 272.779277,63.3283437 272.239277,63.3283437 L263.960277,63.3283437 C263.420277,63.3283437 263.060277,62.9673437 263.060277,62.4273437 L263.060277,37.4093437 C263.060277,31.8293437 260.270277,27.9593437 254.870277,27.9593437 C249.650277,27.9593437 246.590277,31.8293437 246.590277,37.4093437 L246.590277,62.4273437 C246.590277,62.9673437 246.230277,63.3283437 245.690277,63.3283437 L237.411277,63.3283437 C236.871277,63.3283437 236.510277,62.9673437 236.510277,62.4273437 L236.510277,20.8493437 C236.510277,20.3093437 236.871277,19.9493437 237.411277,19.9493437 L245.690277,19.9493437 C246.230277,19.9493437 246.590277,20.3093437 246.590277,20.8493437 L246.590277,23.9993437 L246.680277,23.9993437 C248.570277,21.2993437 252.350277,18.9603437 258.110277,18.9603437 C263.240277,18.9603437 267.379277,21.0293437 269.990277,24.7193437 L270.080277,24.7193437 C273.409277,21.1193437 277.729277,18.9603437 283.939277,18.9603437 Z M217.177277,44.8793437 L209.977277,44.8793437 C203.497277,44.8793437 200.617277,46.6783437 200.617277,50.7283437 C200.617277,54.3283437 203.228277,56.1283437 208.087277,56.1283437 C214.297277,56.1283437 217.717277,53.6983437 217.717277,48.7483437 L217.717277,45.4193437 C217.717277,45.0583437 217.537277,44.8793437 217.177277,44.8793437 Z M90.1892769,27.9593437 C86.1392769,27.9593437 83.2592769,30.0293437 81.9982769,33.6293437 C81.2792769,35.9683437 81.0992769,37.9493437 81.0992769,41.6383437 C81.0992769,45.3283437 81.2792769,47.3983437 81.9982769,49.6483437 C83.2592769,53.2483437 86.1392769,55.3183437 90.1892769,55.3183437 C94.2392769,55.3183437 97.0292769,53.2483437 98.2882769,49.6483437 C99.0082769,47.3983437 99.1882769,45.3283437 99.1882769,41.6383437 C99.1882769,37.9493437 99.0082769,35.9683437 98.2882769,33.6293437 C97.0292769,30.0293437 94.2392769,27.9593437 90.1892769,27.9593437 Z M326.890228,27.9593437 C322.749228,27.9593437 319.960228,29.9393437 318.789228,33.5393437 C318.159228,35.5183437 317.890228,37.6783437 317.890228,41.6383437 C317.890228,45.5983437 318.159228,47.7583437 318.789228,49.7383437 C319.960228,53.3383437 322.749228,55.3183437 326.890228,55.3183437 C330.939228,55.3183437 333.728228,53.3383437 334.898228,49.7383437 C335.529228,47.7583437 335.799228,45.5983437 335.799228,41.6383437 C335.799228,37.6783437 335.529228,35.5183437 334.898228,33.5393437 C333.728228,29.9393437 330.939228,27.9593437 326.890228,27.9593437 Z M24.8617985,36.9593437 L12.0807985,36.9593437 C11.7217985,36.9593437 11.5407985,37.1383437 11.5407985,37.4993437 L11.5407985,53.4283437 C11.5407985,53.7883437 11.7217985,53.9673437 12.0807985,53.9673437 L24.8617985,53.9673437 C30.8007985,53.9673437 34.1307985,50.5483437 34.1307985,45.4193437 C34.1307985,40.3793437 30.8007985,36.9593437 24.8617985,36.9593437 Z M24.3207985,11.4903437 L12.0807985,11.4903437 C11.7217985,11.4903437 11.5407985,11.6703437 11.5407985,12.0303437 L11.5407985,27.0593437 C11.5407985,27.4193437 11.7217985,27.5993437 12.0807985,27.5993437 L24.3207985,27.5993437 C29.7207985,27.5993437 33.0507985,24.3593437 33.0507985,19.5893437 C33.0507985,14.7293437 29.7207985,11.4903437 24.3207985,11.4903437 Z M57.3309392,1.89034375 C60.5239392,1.89034375 63.1129392,4.47934375 63.1129392,7.67134375 C63.1129392,10.8643437 60.5239392,13.4533437 57.3309392,13.4533437 C54.1389392,13.4533437 51.5499392,10.8643437 51.5499392,7.67134375 C51.5499392,4.47934375 54.1389392,1.89034375 57.3309392,1.89034375 Z" id="BioStamp" fill="#283577"></path>
        </g>
    </g>
</svg>