<?xml version="1.0" encoding="UTF-8"?>
<svg width="4851px" height="1065px" viewBox="0 0 4851 1065" version="1.1" xmlns="http://www.w3.org/2000/svg" xmlns:xlink="http://www.w3.org/1999/xlink">
    <!-- Generator: Sketch 58 (84663) - https://sketch.com -->
    <title>Group</title>
    <desc>Created with Sketch.</desc>
    <g id="Page-1" stroke="none" stroke-width="1" fill="none" fill-rule="evenodd">
        <g id="Group" transform="translate(0.153257, 0.000518)" fill="#535353" fill-rule="nonzero">
            <path d="M627.970403,261.093419 C712.356066,267.903712 775.753647,301.168878 817.915524,361.099403 C742.445166,406.827395 705.1124,470.875044 705.855333,553.038058 C706.536364,617.036174 729.753244,670.292612 775.382168,712.578335 C796.060664,732.204312 819.153748,747.372682 844.847043,758.145332 C839.275067,774.304277 833.393455,789.782209 827.140355,804.641019 C811.972001,839.683042 794.017604,871.939022 773.215271,901.59475 C744.859696,942.023034 721.642816,970.007148 703.750329,985.547006 C676.0139,1011.05462 646.296279,1024.11798 614.473654,1024.86094 C591.628245,1024.86094 564.077529,1018.36018 532.007272,1005.17305 C499.831772,992.04768 470.262734,985.547006 443.225888,985.547006 C414.870329,985.547006 384.459292,992.04768 351.930891,1005.17305 C319.352923,1018.36018 293.108568,1025.23242 273.042975,1025.91345 C242.526695,1027.21358 212.109499,1013.77874 181.747978,985.547006 C162.369634,968.645086 138.131208,939.670389 109.094601,898.622916 C77.9406444,854.789494 52.3277724,803.959988 32.262188,746.010637 C10.7726372,683.417899 1.13686838e-13,622.806343 1.13686838e-13,564.126453 C1.13686838e-13,496.908922 14.5244869,438.9348 43.6167945,390.35268 C66.480786,351.329755 96.8980044,320.547247 134.967493,297.949463 C173.037016,275.351712 214.171153,263.836138 258.468988,263.099372 C282.707398,263.099372 314.492891,270.596881 353.992545,285.33187 C393.380772,300.116385 418.671709,307.613893 429.760078,307.613893 C438.050053,307.613893 466.145585,298.84718 513.774262,281.36953 C558.815046,265.161043 596.828818,258.449792 627.970403,261.093419 Z M632.551855,22.99948 C633.294847,29.7052825 633.60439,36.411507 633.60439,43.0645403 C633.60439,93.2266425 615.278498,140.062248 578.750617,183.412798 C534.669452,234.948123 481.35112,264.727637 423.531766,260.028548 C422.795026,254.010722 422.367829,247.677167 422.367829,241.021667 C422.367829,192.866726 443.331139,141.331427 480.558662,99.1943192 C499.144523,77.8595638 522.782415,60.1200031 551.447543,45.9688194 C580.050744,32.0287798 607.106168,24.3196377 632.551855,22.99948 Z" id="Combined-Shape"></path>
            <path d="M3510.33853,344.150968 C3513.71974,344.150968 3516.75421,346.219656 3517.99033,349.369703 C3540.89869,407.716093 3552.51351,469.339865 3552.51351,532.534742 C3552.51351,665.489052 3501.00789,790.75239 3407.48794,885.249878 C3314.04046,979.667048 3189.46277,1032.48519 3056.70436,1033.96422 L3056.70436,1033.96422 L3056.61229,1033.96422 C3053.69536,1033.96422 3050.99196,1032.41858 3049.51489,1029.89541 C3048.0241,1027.34285 3048.0143,1024.18889 3049.49138,1021.63045 L3049.49138,1021.63045 L3251.23151,672.216205 C3251.34709,672.014429 3251.46854,671.82049 3251.5998,671.630468 C3280.13436,630.609335 3295.21462,582.512351 3295.21462,532.532783 C3295.21462,466.51305 3269.16209,404.61698 3221.85654,358.241943 C3219.47245,355.906834 3218.73783,352.355195 3220.00138,349.263918 C3221.25905,346.17264 3224.26805,344.150968 3227.61007,344.150968 L3227.61007,344.150968 Z M2620.98314,282.468427 L2621.02623,282.468427 C2623.86487,282.468427 2626.49665,283.927385 2627.99433,286.326825 L2628.14518,286.578377 L2829.53465,635.385339 C2829.65023,635.589074 2829.75994,635.794767 2829.85789,636.004378 C2870.01903,721.492498 2956.8275,776.733898 3051.01351,776.733898 C3073.18138,776.733898 3095.18469,773.736652 3116.41812,767.824437 C3119.65044,766.93114 3123.07867,768.065392 3125.11993,770.706103 C3127.10313,773.266792 3127.39533,776.744826 3125.88934,779.595109 L3125.74289,779.860437 L2984.5295,1024.45335 C2983.04655,1027.01766 2980.31572,1028.5633 2977.41251,1028.5633 C2977.007,1028.5633 2976.59953,1028.53783 2976.19206,1028.47514 C2858.61186,1010.88151 2750.68945,951.506648 2672.29677,861.285623 C2593.11854,770.157587 2549.51351,653.404078 2549.51351,532.534742 C2549.51351,446.374691 2571.76757,361.348892 2613.86419,286.650859 C2615.26173,284.166344 2617.85096,282.591619 2620.68873,282.475242 L2620.98314,282.468427 L2621.02623,282.468427 Z M3051.01351,345.11283 C3154.35385,345.11283 3238.42563,429.19048 3238.42563,532.534742 C3238.42563,635.877044 3154.35581,719.950777 3051.01351,719.950777 C2947.66533,719.950777 2863.58768,635.879003 2863.58768,532.534742 C2863.58768,429.188521 2947.66533,345.11283 3051.01351,345.11283 Z M3051.01351,31.0367007 C3139.61054,31.0367007 3226.69327,54.4583179 3302.83703,98.7705445 C3376.71817,141.760457 3438.84344,203.348966 3482.49941,276.873568 C3484.00978,279.41633 3484.03525,282.570294 3482.57581,285.138523 C3481.16501,287.624931 3478.56801,289.188736 3475.72444,289.286688 L3475.42943,289.29157 L3072.94434,289.29157 C3072.71122,289.29157 3072.47418,289.281775 3072.24106,289.258267 C3065.0653,288.647064 3057.92677,288.331668 3051.01351,288.331668 C2939.61586,288.331668 2842.36992,363.662453 2814.53275,471.522173 C2813.69627,474.754498 2810.99091,477.162089 2807.68218,477.612656 C2807.30998,477.663589 2806.93581,477.689056 2806.56752,477.689056 C2803.75729,477.689056 2801.11181,476.244743 2799.60257,473.832123 L2799.45053,473.579107 L2658.27436,229.060636 C2656.5818,226.129996 2656.85802,222.464736 2658.97176,219.820107 C2754.79352,99.8460269 2897.68576,31.0367007 3051.01351,31.0367007 Z" id="Combined-Shape"></path>
            <path d="M1964.12095,353.45519 L1964.12095,798.080121 C1964.12095,824.51514 1946.67519,842.231359 1920.41126,842.58304 L1919.6127,842.588373 L1875.10444,842.588373 L1875.10444,998.262217 C1875.10444,1033.8684 1844.05329,1064.92372 1808.4471,1064.92372 C1773.19698,1064.92372 1742.41124,1034.4864 1741.80309,999.333047 L1741.79392,998.266377 L1741.79392,842.592533 L1652.77534,842.592533 L1652.77534,998.266377 C1652.77534,1033.87256 1621.72626,1064.92372 1586.12424,1064.92372 C1550.86588,1064.92372 1520.08821,1034.49048 1519.47618,999.333169 L1519.4669,998.266377 L1519.4669,842.592533 L1474.95448,842.592533 C1448.51741,842.592533 1430.80321,825.142702 1430.45157,798.882726 L1430.44623,798.084281 L1430.44623,353.45519 L1964.12095,353.45519 Z M2075.28862,353.45519 C2110.5408,353.45519 2141.31841,384.043356 2141.93043,419.022132 L2141.93972,420.083412 L2141.93972,731.42694 C2141.93972,767.037285 2110.8948,798.084281 2075.28862,798.084281 C2040.03232,798.084281 2009.25263,767.651043 2008.64057,732.493733 L2008.63128,731.42694 L2008.63128,420.083412 C2008.63128,384.6665 2039.67827,353.45519 2075.28862,353.45519 Z M1319.28064,353.45519 C1354.539,353.45519 1385.31667,384.043356 1385.9287,419.022132 L1385.93798,420.083412 L1385.93798,731.42694 C1385.93798,767.037285 1354.89099,798.084281 1319.28064,798.084281 C1284.03052,798.084281 1253.25293,767.651043 1252.63889,732.493733 L1252.62954,731.42694 L1252.62954,420.083412 C1252.62954,384.6665 1283.67446,353.45519 1319.28064,353.45519 Z M1483.86071,6.71554825 C1492.75862,-2.23851608 1505.9994,-2.23851608 1514.90355,6.71554825 L1514.90355,6.71554825 L1574.59939,66.2117178 L1577.35945,68.9613748 C1612.75348,51.2362792 1652.43839,42.3841311 1696.63049,42.2988543 C1696.85305,42.2988543 1697.05896,42.2926145 1697.28359,42.2926145 L1697.28359,42.2926145 C1697.50614,42.2926145 1697.72037,42.2988543 1697.93669,42.2988543 C1742.13087,42.3841311 1781.81786,51.2362792 1817.21397,68.9613748 L1817.21397,68.9613748 L1819.96779,66.2117178 L1879.66363,6.71554825 C1888.56154,-2.23851608 1901.80856,-2.23851608 1910.70647,6.71554825 C1919.6127,15.6217744 1919.6127,28.835519 1910.70647,37.7375853 L1910.70647,37.7375853 L1852.95535,95.4928601 C1871.56234,107.916234 1888.4409,123.118385 1903.10643,140.506533 C1938.23424,182.136172 1960.6454,236.326461 1963.71952,295.0385 C1963.75488,295.649997 1963.8152,296.253174 1963.84432,296.864671 C1964.02527,300.864361 1964.12095,304.88277 1964.12095,308.915739 L1964.12095,308.915739 L1430.44831,308.915739 C1430.44831,304.880691 1430.53567,300.862281 1430.72494,296.864671 C1430.75198,296.253174 1430.8123,295.649997 1430.84142,295.0385 C1433.92178,236.326461 1456.32878,182.138252 1491.45451,140.502373 C1506.12628,123.114225 1522.9986,107.912075 1541.60559,95.4887003 L1541.60559,95.4887003 L1483.86071,37.7334254 C1474.95656,28.835519 1474.95656,15.6196944 1483.86071,6.71554825 Z M1586.03896,164.517153 C1567.62333,164.517153 1552.69573,179.444753 1552.69573,197.860383 C1552.69573,216.276012 1567.62541,231.203613 1586.03896,231.203613 C1604.45251,231.203613 1619.38219,216.276012 1619.38219,197.860383 C1619.38219,179.444753 1604.45251,164.517153 1586.03896,164.517153 Z M1808.52822,164.517153 C1790.11259,164.517153 1775.18499,179.444753 1775.18499,197.860383 C1775.18499,216.276012 1790.11467,231.203613 1808.52822,231.203613 C1826.94385,231.203613 1841.87145,216.276012 1841.87145,197.860383 C1841.87145,179.444753 1826.94177,164.517153 1808.52822,164.517153 Z" id="Combined-Shape"></path>
            <path d="M4443.6772,40.3699529 L4811.57622,252.975379 C4835.40166,266.753058 4850.22003,292.448061 4850.22003,320.031048 L4850.22003,744.634061 C4850.22003,772.217048 4835.40166,797.884422 4811.57622,811.754198 L4443.6772,1024.17543 C4431.91644,1030.99059 4418.57162,1034.49948 4404.94129,1034.49948 C4391.49516,1034.49948 4378.12271,1030.99059 4366.35274,1024.17543 L4243.51405,951.492648 C4225.17758,941.233067 4234.12939,937.595244 4240.18014,935.486227 L4249.59112,932.190371 C4266.49783,926.172235 4273.3363,922.917648 4295.72371,910.224079 C4298.44057,908.686063 4302.05076,909.275483 4304.85972,910.924015 L4399.23129,966.946489 C4402.64808,968.843683 4407.47395,968.843683 4410.62366,966.946489 L4778.55032,754.589724 C4781.97632,752.637272 4784.16822,748.69553 4784.16822,744.634061 L4784.16822,320.031048 C4784.16822,315.877483 4781.97632,312.000208 4778.45822,309.891192 L4410.68813,97.7186204 C4407.28976,95.7293298 4402.77702,95.7293298 4399.35102,97.7186204 L4031.67302,309.95566 C4028.09967,312.000208 4025.83409,316.006418 4025.83409,320.031048 L4025.83409,744.634061 C4025.83409,748.69553 4028.09967,752.545175 4031.63619,754.469998 L4132.42691,812.702795 C4187.11398,840.04633 4220.60037,807.840084 4220.60037,775.486484 L4220.60037,356.271132 C4220.60037,350.340099 4225.36177,345.670792 4231.2928,345.670792 L4277.93983,345.670792 C4283.77876,345.670792 4288.60463,350.340099 4288.60463,356.271132 L4288.60463,775.486484 C4288.60463,847.560852 4249.84317,889.27986 4182.24424,890.311574 L4173.12617,890.30514 C4154.58456,890.081246 4136.78635,887.931861 4094.91589,867.297768 L3998.4353,811.754198 C3974.60065,797.976519 3959.84674,772.217048 3959.84674,744.634061 L3959.84674,320.031048 C3959.84674,292.448061 3974.60065,266.68859 3998.4353,252.975379 L4366.35274,40.3699529 C4389.63481,27.2093224 4420.57932,27.2093224 4443.6772,40.3699529 Z M4500.84167,342.298669 C4618.70714,342.298669 4677.03203,383.20806 4684.41819,470.976296 C4684.69448,474.00628 4683.62616,476.907328 4681.60924,479.1637 C4679.59232,481.272716 4676.78337,482.562071 4673.81785,482.562071 L4626.06567,482.562071 C4621.12007,482.562071 4616.74548,479.043974 4615.74162,474.245731 C4604.28478,423.288581 4576.4255,407.005869 4500.84167,407.005869 C4417.22141,407.005869 4406.62279,435.788319 4406.38229,457.787918 L4406.4125,460.961541 C4407.15966,485.30386 4420.85607,493.252984 4525.4465,507.340132 L4539.16487,509.180825 C4647.50594,524.092695 4699.02474,545.997576 4699.02474,623.829328 C4699.02474,703.990369 4632.1809,749.909826 4515.59558,749.909826 C4354.59198,749.909826 4320.86614,676.011366 4320.86614,614.021021 C4320.86614,608.126827 4325.59991,603.420681 4331.49411,603.420681 L4379.06209,603.420681 C4384.37608,603.420681 4388.80593,607.242697 4389.63481,612.427746 L4390.14737,615.692248 C4397.74154,661.412744 4419.91983,684.748738 4512.30566,685.285254 L4515.59558,685.294722 C4592.01256,685.294722 4625.16415,668.249966 4626.08284,628.361777 L4626.09047,625.223262 C4625.68794,602.465517 4614.56685,585.447204 4499.87247,573.890943 L4490.05038,572.896633 C4393.05368,562.627589 4333.35446,539.660542 4333.35446,460.808811 C4333.35446,387.351058 4394.61467,343.234009 4497.54261,342.313368 L4500.84167,342.298669 Z" id="Combined-Shape"></path>
        </g>
    </g>
</svg>